<?xml version="1.0" standalone="no"?>
<!DOCTYPE svg PUBLIC "-//W3C//DTD SVG 20010904//EN"
 "http://www.w3.org/TR/2001/REC-SVG-20010904/DTD/svg10.dtd">
<svg version="1.0" xmlns="http://www.w3.org/2000/svg"
 width="512.000000pt" height="512.000000pt" viewBox="0 0 512.000000 512.000000"
 preserveAspectRatio="xMidYMid meet">

<g transform="translate(0.000000,512.000000) scale(0.100000,-0.100000)"
fill="#000000" stroke="none">
<path d="M712 4836 c-207 -51 -389 -237 -431 -445 -8 -38 -11 -513 -11 -1620
0 -1733 -4 -1624 66 -1764 70 -139 224 -259 384 -298 44 -11 209 -14 810 -14
l755 0 38 24 c51 31 81 91 74 149 -5 50 -29 87 -77 120 l-33 22 -727 0 c-802
0 -788 -1 -872 63 -24 18 -54 55 -70 86 l-28 53 0 1129 0 1129 1970 0 1970 0
0 -352 c0 -208 4 -368 10 -390 14 -49 76 -104 129 -113 53 -9 126 25 158 74
23 34 23 34 23 480 1 919 -1 1175 -11 1225 -32 153 -155 315 -295 388 -138 72
-2 68 -1989 67 -1418 -1 -1801 -3 -1843 -13z m3669 -329 c47 -23 103 -79 126
-126 16 -32 18 -69 21 -313 l3 -278 -1971 0 -1970 0 0 264 c0 172 4 275 12
297 24 73 88 138 162 166 23 9 464 11 1806 10 1693 -2 1777 -3 1811 -20z"/>
<path d="M1010 4309 c-90 -37 -129 -153 -77 -229 48 -71 60 -75 242 -75 179 0
190 3 239 69 29 39 29 133 0 172 -48 64 -62 69 -227 71 -87 1 -163 -2 -177 -8z"/>
<path d="M1736 4297 c-109 -61 -106 -221 5 -277 33 -17 59 -20 179 -20 120 0
146 3 179 20 113 57 113 223 0 280 -33 17 -58 20 -181 20 -129 0 -147 -2 -182
-23z"/>
<path d="M4073 2506 c-23 -7 -62 -25 -85 -39 -47 -28 -1234 -1211 -1255 -1250
-13 -26 -133 -744 -133 -798 0 -46 43 -113 84 -133 19 -9 51 -16 71 -16 20 0
204 27 407 60 270 44 379 66 402 80 17 10 299 288 627 617 687 689 654 648
654 818 0 154 -13 175 -248 412 -228 231 -265 255 -400 260 -51 2 -98 -2 -124
-11z m294 -469 c123 -123 163 -169 163 -188 0 -18 -28 -52 -105 -129 l-105
-105 -187 188 -188 187 105 105 c77 77 111 105 129 105 19 0 65 -40 188 -163z
m-457 -462 l185 -185 -349 -349 -349 -349 -221 -35 c-121 -20 -221 -35 -222
-34 -1 1 15 102 35 225 l36 222 345 345 c190 190 347 345 350 345 3 0 88 -83
190 -185z"/>
</g>
</svg>
